<svg width="25" height="25" viewBox="0 0 25 25" fill="none" xmlns="http://www.w3.org/2000/svg">
<path fill-rule="evenodd" clip-rule="evenodd" d="M22.34 6.55605C22.3836 6.29137 22.3555 6.01983 22.2585 5.76973C22.1615 5.51963 21.9992 5.30012 21.7885 5.13406C21.5778 4.96801 21.3265 4.8615 21.0606 4.82561C20.7948 4.78973 20.5242 4.8258 20.277 4.93005L3.17703 12.1301C1.98503 12.6321 1.92403 14.3561 3.17703 14.8761C4.41775 15.3935 5.67655 15.8665 6.95103 16.2941C8.11903 16.6801 9.39303 17.0371 10.414 17.1381C10.693 17.4721 11.044 17.7931 11.402 18.0881C11.949 18.5381 12.607 19.0011 13.287 19.4451C14.649 20.3351 16.16 21.1861 17.178 21.7401C18.395 22.4001 19.852 21.6401 20.07 20.3131L22.34 6.55605ZM5.09403 13.4921L20.218 7.12505L18.1 19.9651C17.101 19.4221 15.662 18.6091 14.38 17.7711C13.7892 17.3917 13.2187 16.9815 12.671 16.5421C12.5246 16.4225 12.3825 16.2977 12.245 16.1681L16.206 12.2081C16.3937 12.0205 16.4991 11.7662 16.4992 11.5009C16.4993 11.2356 16.394 10.9812 16.2065 10.7936C16.019 10.6059 15.7647 10.5004 15.4994 10.5003C15.2341 10.5003 14.9797 10.6055 14.792 10.7931L10.455 15.1301C9.72103 15.0361 8.69903 14.7641 7.57703 14.3941C6.74172 14.1158 5.91309 13.815 5.09403 13.4921Z" fill="white"/>
</svg>
