<svg width="25" height="25" viewBox="0 0 25 25" fill="none" xmlns="http://www.w3.org/2000/svg">
<g clip-path="url(#clip0_1_1368)">
<path fill-rule="evenodd" clip-rule="evenodd" d="M12.4998 3.5C12.4999 3.5 12.5 3.5 12.5 4.5L12.4999 5.5L12.4245 5.50011C12.3745 5.50022 12.3005 5.50044 12.2057 5.50089C12.0159 5.50178 11.7425 5.50356 11.4088 5.50713C10.741 5.51427 9.83394 5.52855 8.87466 5.55706C7.91379 5.58561 6.90856 5.62821 6.04208 5.69141C5.15397 5.75619 4.49408 5.83761 4.16531 5.92419C3.86661 6.01 3.59554 6.17253 3.3791 6.39566C3.16797 6.61333 3.01606 6.88119 2.93757 7.17375C2.63803 8.84737 2.49155 10.5448 2.49995 12.2451L2.5 12.2563C2.48928 13.9635 2.63467 15.6681 2.93444 17.3487C3.02106 17.6264 3.17449 17.8788 3.38154 18.0837C3.59845 18.2984 3.8669 18.4537 4.1611 18.5347C4.48842 18.6217 5.15016 18.7035 6.04208 18.7686C6.90856 18.8318 7.91379 18.8744 8.87466 18.9029C9.83394 18.9314 10.741 18.9457 11.4088 18.9529C11.7425 18.9564 12.0159 18.9582 12.2057 18.9591C12.3005 18.9596 12.3745 18.9598 12.4245 18.9599H12.5754C12.6255 18.9598 12.6994 18.9596 12.7943 18.9591C12.984 18.9582 13.2575 18.9564 13.5911 18.9529C14.2589 18.9457 15.166 18.9314 16.1253 18.9029C17.0861 18.8744 18.0914 18.8318 18.9578 18.7686C19.846 18.7038 20.5058 18.6224 20.8346 18.5358C21.1333 18.45 21.4044 18.2875 21.6208 18.0643C21.832 17.8467 21.9839 17.5788 22.0624 17.2863C22.3596 15.6253 22.506 13.9409 22.5 12.2536L22.4999 12.2437C22.5107 10.5306 22.3642 8.82008 22.0624 7.13377C21.9839 6.8412 21.832 6.57333 21.6208 6.35566C21.4069 6.13509 21.1395 5.97373 20.8449 5.88717C20.5049 5.8072 19.8426 5.73348 18.9641 5.67498C18.0959 5.61716 17.0893 5.57822 16.1278 5.55213C15.1679 5.52609 14.2602 5.51304 13.5921 5.50651C13.2582 5.50325 12.9846 5.50162 12.7947 5.50081L12.5756 5.5001L12.4999 5.5L12.5 4.5C12.5 3.5 12.4999 3.5 12.4998 3.5L12.5797 3.5001C12.6312 3.50021 12.7067 3.50042 12.8032 3.50083C12.9963 3.50166 13.2736 3.50331 13.6116 3.50661C14.2872 3.51321 15.2071 3.52641 16.1821 3.55287C17.1556 3.57928 18.1915 3.61909 19.097 3.6794C19.9767 3.73798 20.8115 3.82017 21.3372 3.94854C21.3489 3.95141 21.3606 3.95448 21.3722 3.95777C22.0123 4.13886 22.5932 4.48566 23.0564 4.96315C23.5196 5.44063 23.8485 6.03189 24.01 6.67719C24.0154 6.69879 24.0201 6.72057 24.0241 6.74249C24.352 8.56021 24.5113 10.4043 24.5 12.2513C24.5062 14.0707 24.3469 15.8869 24.0241 17.6774C24.0201 17.6994 24.0154 17.7212 24.01 17.7428C23.8485 18.3881 23.5196 18.9794 23.0564 19.4569C22.5932 19.9343 22.0123 20.2811 21.3722 20.4622L21.3583 20.466C20.8247 20.6088 19.9826 20.6992 19.1033 20.7633C18.1961 20.8295 17.1588 20.8731 16.1847 20.9021C15.2089 20.9311 14.2885 20.9455 13.6125 20.9528C13.2743 20.9564 12.9969 20.9582 12.8036 20.9591C12.707 20.9595 12.6314 20.9598 12.5799 20.9599L12.5004 20.96L12.4201 20.9599C12.3685 20.9598 12.2929 20.9595 12.1963 20.9591C12.0031 20.9582 11.7256 20.9564 11.3874 20.9528C10.7114 20.9455 9.79099 20.9311 8.81526 20.9021C7.84113 20.8731 6.80386 20.8295 5.89659 20.7633C5.01729 20.6992 4.17525 20.6088 3.6416 20.466L3.63604 20.4646C3.00897 20.293 2.43675 19.9626 1.97467 19.5052C1.51259 19.0479 1.17627 18.4792 0.998203 17.8539C0.989164 17.8222 0.981701 17.79 0.975843 17.7575C0.648004 15.94 0.488696 14.0961 0.499946 12.2493C0.491232 10.4164 0.650527 8.58643 0.975836 6.78253C0.97979 6.7606 0.984476 6.73881 0.989887 6.71719C1.1514 6.07189 1.48036 5.48063 1.94352 5.00315C2.40668 4.52566 2.98764 4.17886 3.62773 3.99777L3.6416 3.99395C4.17525 3.85123 5.01729 3.76085 5.89659 3.69671C6.80386 3.63054 7.84113 3.58689 8.81526 3.55794C9.79099 3.52895 10.7114 3.51448 11.3874 3.50724C11.7256 3.50363 12.0031 3.50182 12.1963 3.50091C12.2929 3.50046 12.3685 3.50023 12.4201 3.50011L12.4998 3.5Z" fill="white"/>
<path fill-rule="evenodd" clip-rule="evenodd" d="M9.74718 8.11559C10.055 7.93653 10.4348 7.93468 10.7443 8.11072L16.4943 11.3807C16.8069 11.5585 17 11.8904 17 12.25C17 12.6096 16.8069 12.9415 16.4943 13.1192L10.7443 16.3892C10.4348 16.5653 10.055 16.5634 9.74718 16.3844C9.43937 16.2053 9.25 15.8761 9.25 15.52V8.97998C9.25 8.62388 9.43937 8.29464 9.74718 8.11559ZM11.25 10.6991V13.8009L13.9771 12.25L11.25 10.6991Z" fill="white"/>
</g>
<defs>
<clipPath id="clip0_1_1368">
<rect width="24" height="24" fill="white" transform="translate(0.5 0.5)"/>
</clipPath>
</defs>
</svg>
